#!OML:ASF F:\VICON\USERDATA\INSTALL\rory3\rory3.ASF
:FULLY-SPECIFIED
:DEGREES
666
root 3.51143 17.8129 6.85031 15.1548 -5.77394 -4.03293
lowerback 0.788191 -2.54181 4.16358
upperback -6.50685 -3.1092 2.16244
thorax -7.34587 -1.72119 0.167761
lowerneck -9.95587 -10.5916 -11.7154
upperneck 16.0262 -13.6409 6.00375
head 7.80505 -6.7526 2.39235
rclavicle -1.42566e-015 1.30204e-014
rhumerus -44.365 8.16565 -82.8307
rradius 46.5955
rwrist 7.19533
rhand -21.5257 -54.2329
rfingers 7.12502
rthumb 4.86672 -84.157
lclavicle -1.42566e-015 1.30204e-014
lhumerus -48.5449 -20.7176 85.0766
lradius 59.5154
lwrist -1.90142
lhand -32.0102 -44.2522
lfingers 7.12502
lthumb -5.2586 -14.3375
rfemur -99.9509 0.685988 25.5206
rtibia 138.315
rfoot -4.77674 -5.1624
rtoes -2.31484
lfemur -22.8946 5.49798 -22.7649
ltibia 29.9867
lfoot -9.93967 0.42534
ltoes -9.65743
667
root 3.49578 17.598 6.8172 14.7736 -5.42701 -4.04137
lowerback 1.2511 -2.52565 4.45826
upperback -6.30207 -3.0543 2.09437
thorax -7.41514 -1.71029 -0.0549947
lowerneck -9.52999 -10.4943 -11.8504
upperneck 15.4519 -13.5661 6.36665
head 7.57044 -6.70508 2.57056
rclavicle -6.48535e-015 -8.84592e-015
rhumerus -44.4054 7.33201 -82.6962
rradius 46.6962
rwrist 7.4919
rhand -22.5606 -53.7871
rfingers 7.12502
rthumb 3.86747 -83.7317
lclavicle -6.48535e-015 -8.84592e-015
lhumerus -48.0401 -20.6809 85.1915
lradius 58.9583
lwrist -2.38157
lhand -32.3643 -45.4046
lfingers 7.12502
lthumb -5.60044 -15.4986
rfemur -98.8233 0.299239 25.4017
rtibia 137.897
rfoot -5.18458 -5.24934
rtoes -2.76506
lfemur -23.996 5.69114 -22.7368
ltibia 32.9565
lfoot -13.1225 0.406692
ltoes -8.44279
668
root 3.47339 17.3855 6.77336 14.4831 -5.02977 -4.00901
lowerback 1.67411 -2.50754 4.58059
upperback -5.90891 -3.01057 2.06566
thorax -7.24477 -1.68809 -0.151304
lowerneck -9.89291 -10.4855 -11.9579
upperneck 15.0839 -13.5577 6.86487
head 7.55537 -6.65575 2.73507
rclavicle 1.43901e-014 1.11319e-014
rhumerus -43.787 6.154 -82.3523
rradius 46.8026
rwrist 7.50038
rhand -22.8668 -55.0115
rfingers 7.12502
rthumb 3.57173 -84.9613
lclavicle 1.43901e-014 1.11319e-014
lhumerus -46.8433 -20.6083 85.0947
lradius 58.284
lwrist -3.20927
lhand -32.895 -46.3413
lfingers 7.12502
lthumb -6.11282 -16.4495
rfemur -97.8305 -0.231911 25.3011
rtibia 137.465
rfoot -5.50317 -5.35507
rtoes -3.30652
lfemur -25.206 5.73175 -22.704
ltibia 35.7059
lfoot -15.9897 0.782252
ltoes -7.4273
669
root 3.45104 17.196 6.73045 14.3625 -4.66166 -4.03612
lowerback 2.05874 -2.44464 4.79157
upperback -5.85762 -2.89318 2.01448
thorax -7.4243 -1.6441 -0.314473
lowerneck -9.39231 -10.4548 -12.1301
upperneck 14.5677 -13.5901 7.29103
head 7.34618 -6.66074 2.92603
rclavicle -1.78906e-015 -2.98177e-016
rhumerus -43.8989 5.28585 -82.133
rradius 46.7733
rwrist 8.26847
rhand -23.8073 -54.5517
rfingers 7.12502
rthumb 2.66344 -84.5149
lclavicle -1.78906e-015 -2.98177e-016
lhumerus -46.3737 -20.6783 85.1721
lradius 57.8519
lwrist -4.28176
lhand -33.0204 -47.0992
lfingers 7.12502
lthumb -6.23388 -17.2109
rfemur -96.9732 -0.525221 25.1993
rtibia 136.779
rfoot -5.59868 -5.51772
rtoes -4.45964
lfemur -26.4768 5.67612 -22.6142
ltibia 38.1612
lfoot -18.5537 1.52255
ltoes -6.23241
670
root 3.42249 17.0155 6.69166 14.4263 -4.79604 -3.42246
lowerback 2.29509 -2.29836 4.1115
upperback -5.66402 -2.73996 1.82793
thorax -7.31514 -1.53157 -0.143957
lowerneck -10.02 -10.5037 -11.8529
upperneck 14.4198 -13.6121 7.27744
head 7.38729 -6.63915 2.84914
rclavicle -1.41758e-014 -2.01766e-014
rhumerus -43.4452 4.69521 -81.9527
rradius 46.5691
rwrist 9.10152
rhand -24.9897 -55.0157
rfingers 7.12502
rthumb 1.52156 -84.99
lclavicle -1.41758e-014 -2.01766e-014
lhumerus -45.2859 -20.539 84.8889
lradius 57.4226
lwrist -5.63536
lhand -31.735 -48.0045
lfingers 7.12502
lthumb -4.99285 -18.0833
rfemur -96.7588 -0.832781 24.3031
rtibia 136.127
rfoot -5.7444 -5.39702
rtoes -5.49815
lfemur -27.8739 5.83198 -23.3754
ltibia 40.3786
lfoot -20.8391 2.6266
ltoes -6.01168
671
root 3.39468 16.8495 6.70658 15.044 -4.98525 -2.4479
lowerback 1.01334 -2.1104 3.23237
upperback -5.54257 -2.61928 1.53296
thorax -6.40352 -1.42653 -0.0358778
lowerneck -10.0334 -10.4465 -11.8446
upperneck 14.1182 -13.5469 7.48181
head 7.29895 -6.59142 2.92602
rclavicle -4.93359e-014 5.86415e-015
rhumerus -43.0551 3.71222 -81.5004
rradius 46.3717
rwrist 9.71214
rhand -25.1486 -54.758
rfingers 7.12502
rthumb 1.36807 -84.7334
lclavicle -4.93359e-014 5.86415e-015
lhumerus -44.357 -20.3778 84.6497
lradius 57.0653
lwrist -7.03767
lhand -32.6156 -48.6592
lfingers 7.12502
lthumb -5.84313 -18.7598
rfemur -96.7747 -1.36038 22.8106
rtibia 135.51
rfoot -6.49835 -5.37931
rtoes -5.63089
lfemur -29.4407 5.94068 -24.6948
ltibia 42.1853
lfoot -22.9475 3.93095
ltoes -7.11638
672
root 3.33038 16.6707 6.62515 15.8365 -5.24963 -1.02974
lowerback 0.823373 -1.9996 1.25182
upperback -5.76702 -2.57497 1.25185
thorax -6.4457 -1.31177 0.768837
lowerneck -10.0552 -10.3529 -11.8238
upperneck 13.8743 -13.443 7.72182
head 7.22873 -6.52198 3.01608
rclavicle -3.58247e-014 -5.56597e-015
rhumerus -42.6766 2.67106 -81.0666
rradius 46.2624
rwrist 10.3873
rhand -24.8148 -54.7639
rfingers 7.12502
rthumb 1.69046 -84.737
lclavicle -3.58247e-014 -5.56597e-015
lhumerus -43.5999 -20.0654 84.2793
lradius 57.095
lwrist -8.25683
lhand -32.4027 -48.709
lfingers 7.12502
lthumb -5.63758 -18.804
rfemur -98.6658 -1.92994 21.5207
rtibia 135.114
rfoot -5.6782 -5.12628
rtoes -4.40601
lfemur -31.7495 5.8294 -26.3124
ltibia 43.8883
lfoot -24.2083 4.96525
ltoes -7.30717
673
root 3.29463 16.5522 6.61481 15.8907 -5.13371 -0.322053
lowerback 0.694248 -1.978 0.556979
upperback -5.68532 -2.58843 1.04643
thorax -6.26112 -1.28856 0.935247
lowerneck -10.3307 -10.2359 -11.6277
upperneck 13.862 -13.2889 7.76568
head 7.24578 -6.42706 3.00846
rclavicle 5.13051e-014 1.08338e-014
rhumerus -42.5457 1.74386 -80.705
rradius 46.2733
rwrist 10.955
rhand -24.4952 -54.341
rfingers 7.12502
rthumb 1.99913 -84.3114
lclavicle 5.13051e-014 1.08338e-014
lhumerus -43.0394 -19.6661 83.9344
lradius 57.4038
lwrist -9.30398
lhand -31.9398 -48.798
lfingers 7.12502
lthumb -5.19063 -18.8816
rfemur -97.8627 -2.14714 20.4811
rtibia 134.187
rfoot -5.95738 -5.5234
rtoes -3.63798
lfemur -32.5652 5.5992 -27.0798
ltibia 45.2967
lfoot -25.5165 5.95878
ltoes -6.55216
674
root 3.27087 16.4356 6.60854 15.6374 -4.95607 -0.0651473
lowerback 0.919834 -1.93848 0.576734
upperback -5.54544 -2.54062 0.885681
thorax -6.25093 -1.26969 0.759539
lowerneck -10.4477 -10.0725 -11.4651
upperneck 13.8083 -13.089 7.85075
head 7.22302 -6.3137 3.03314
rclavicle 2.77118e-014 4.57205e-015
rhumerus -42.5839 0.839701 -80.4377
rradius 46.6283
rwrist 11.1856
rhand -24.196 -56.2824
rfingers 7.12502
rthumb 2.28805 -86.2499
lclavicle 2.77118e-014 4.57205e-015
lhumerus -42.6565 -19.3375 83.6389
lradius 57.983
lwrist -10.1044
lhand -31.6966 -49.3456
lfingers 7.12502
lthumb -4.95581 -19.4236
rfemur -96.4463 -2.16508 19.8702
rtibia 133.188
rfoot -6.44935 -6.15513
rtoes -4.20115
lfemur -33.0668 5.30959 -27.319
ltibia 46.8051
lfoot -26.3692 7.25803
ltoes -7.10122
675
root 3.263 16.3446 6.62598 15.3468 -5.11813 0.512991
lowerback 0.654417 -1.82023 0.463572
upperback -5.1704 -2.40581 0.555268
thorax -5.7112 -1.20722 0.451797
lowerneck -11.3135 -9.8932 -10.7367
upperneck 14.2603 -12.7997 7.2587
head 7.39997 -6.15847 2.72661
rclavicle 9.26834e-015 -8.15017e-015
rhumerus -42.3343 -0.317147 -79.9818
rradius 46.8742
rwrist 11.5252
rhand -24.794 -55.8163
rfingers 7.12502
rthumb 1.71057 -85.7892
lclavicle 9.26834e-015 -8.15017e-015
lhumerus -42.063 -19.0574 83.2848
lradius 58.7988
lwrist -10.2215
lhand -31.473 -49.4395
lfingers 7.12502
lthumb -4.73985 -19.5125
rfemur -94.8919 -2.18025 18.6302
rtibia 132.104
rfoot -7.25869 -6.47345
rtoes -5.41431
lfemur -33.2927 5.0262 -27.9933
ltibia 48.1303
lfoot -27.0149 8.26367
ltoes -7.68278
676
root 3.22793 16.2614 6.57708 15.073 -5.7285 0.915495
lowerback 1.50269 -1.58742 -0.0746457
upperback -5.13293 -2.12116 0.391279
thorax -6.14561 -1.04161 0.593084
lowerneck -12.5193 -9.67398 -9.66128
upperneck 15.3088 -12.4195 6.03541
head 7.76383 -5.98548 2.15242
rclavicle -1.99406e-014 -4.37326e-015
rhumerus -42.4396 -1.1514 -79.6467
rradius 47.3234
rwrist 11.9793
rhand -25.8619 -54.05
rfingers 7.12502
rthumb 0.67909 -84.0287
lclavicle -1.99406e-014 -4.37326e-015
lhumerus -41.7425 -18.9392 83.1524
lradius 59.7035
lwrist -9.52284
lhand -31.5655 -49.3131
lfingers 7.12502
lthumb -4.82921 -19.3882
rfemur -94.4887 -1.15482 17.8489
rtibia 131.021
rfoot -6.96869 -6.84779
rtoes -6.26743
lfemur -34.0386 5.15256 -28.361
ltibia 49.5343
lfoot -27.2374 8.43461
ltoes -7.31806
677
root 3.19701 16.206 6.56803 14.7817 -6.2146 0.813979
lowerback 1.88239 -1.3389 0.0765752
upperback -5.20993 -1.78275 0.335057
thorax -6.45556 -0.881221 0.439147
lowerneck -12.3608 -9.51924 -9.41715
upperneck 15.7104 -12.2205 5.64537
head 7.81093 -5.91393 2.01707
rclavicle 1.28837e-014 -1.81888e-014
rhumerus -43.1106 -1.63001 -79.3789
rradius 47.9053
rwrist 12.0986
rhand -26.2185 -54.9478
rfingers 7.12502
rthumb 0.334738 -84.9273
lclavicle 1.28837e-014 -1.81888e-014
lhumerus -42.027 -19.028 83.3013
lradius 60.8506
lwrist -8.69848
lhand -31.7116 -49.3462
lfingers 7.12502
lthumb -4.97025 -19.4245
rfemur -93.3857 0.204098 17.4737
rtibia 129.778
rfoot -7.09692 -7.54296
rtoes -7.12237
lfemur -34.3869 5.46564 -28.1776
ltibia 50.714
lfoot -27.5639 8.3709
ltoes -7.16337
